<?xml version="1.0" encoding="utf-8"?>
<!-- Generator: Adobe Illustrator 16.0.0, SVG Export Plug-In . SVG Version: 6.00 Build 0)  -->
<!DOCTYPE svg PUBLIC "-//W3C//DTD SVG 1.1//EN" "http://www.w3.org/Graphics/SVG/1.1/DTD/svg11.dtd">
<svg version="1.1" id="Layer_1" xmlns="http://www.w3.org/2000/svg" xmlns:xlink="http://www.w3.org/1999/xlink" x="0px" y="0px"
	 width="144px" height="168px" viewBox="0 0 144 168" enable-background="new 0 0 144 168" xml:space="preserve">
<path d="M64.56,38.167c-13.656,1.518-25.784,5.893-36.931,10.938c-4.875,2.199-12.055,5.737-15.401,8.63
	c-1.673,1.446-4.361,3.741-5.257,6.551c-1.183,3.717-0.168,7.471,1.84,9.91c5.52,6.694,20.586,12.935,31.28,16.4
	c12.915,4.172,27.599,6.217,42.093,5.057C95.83,94.564,108.721,90.8,119.747,85.6c9.772-4.603,27.276-12.946,17.063-24.745
	c-5.595-6.466-20.146-13.448-30.479-17.177C93.714,39.124,79.161,36.542,64.56,38.167L64.56,38.167z M16.159,62.051
	c6.858,6.635-0.562,11.297-0.884,11.691c10.515,9.981,38.008,18.277,57.219,18.42C84,92.258,95.207,89.844,104.873,86.33
	c5.675-2.056,22.475-9.922,24.816-13.03c-3.907-2.785-4.469-9.456,0.717-11.153c-0.072-0.096-0.203-0.371-0.252-0.287
	c-0.047,0.083-0.19-0.215-0.25-0.274c-4.35-4.268-19.188-11.44-24.207-13.449C74.621,35.705,39.769,42.052,16.159,62.051
	L16.159,62.051z"/>
<path fill="#FFFFFF" d="M85.184,88.016l4.957-0.752l0.682-35.84c2.846,0.383,2.783,2.881,2.714,6.288
	c-0.062,3.192-0.071,6.383-0.119,9.576c-0.097,6.384-0.097,12.922-0.323,19.28l4.278-0.896l0.717-31.953
	c3.871,0.61,2.595,9.479,2.496,13.867c-0.104,4.745-0.774,12.695-0.263,17.059l4.72-1.458l0.92-28.02
	c-0.084-4.375-4.588-5.104-8.34-6.156c-3.765-1.064-8.041-2.14-12.021-2.618L85.184,88.016z"/>
<path fill="#FFFFFF" d="M83.271,66.761l-10.694-0.107l-0.251,4.148l6.165-0.072c0.097,3.347,0.286,11.548-0.466,14.092
	c-2.928,1.389-4.779,1.222-7.563-0.082l-0.096-34.212c1.399-0.669,3-1.422,4.936-1.088c2.378,0.418,2.197,1.518,2.496,3.801
	l5.604,0.264c0.061-2.427,0.322-4.339-0.99-5.703c-3.62-3.717-14.505-2.546-16.728-0.263c-1.958,2.021-1.087,10.006-1.063,13.137
	c0.036,4.77,0.072,9.551,0.096,14.333c0.024,3.729-0.991,10.531,1.267,12.85c2.39,2.438,8.161,2.32,12.415,1.9
	c4.564-0.453,4.769-4.184,4.826-8.847C83.282,76.576,83.665,70.969,83.271,66.761L83.271,66.761z"/>
<path fill="#FFFFFF" d="M37.868,82.121l2.33,1.195c0.813,0.299,1.601,0.539,2.223,0.801c1.039-4.816-0.49-22.604-0.395-29.023
	c6.775-1.327,5.568-1.913,5.915,14.429c0.119,5.392,0.215,10.794,0.382,16.174l5.125,1.457c0.43-2.498,0.191-27.292-0.155-32.203
	c-0.585-8.344-10.873-3.85-14.601-2.355c-2.664,1.052-1.888,1.292-1.637,8.5C37.188,64.92,37.104,79.803,37.868,82.121
	L37.868,82.121z"/>
<path fill="#FFFFFF" d="M107.061,82.253l4.719-1.578l-0.118-6.896l5.126-2.092l0.061,6.717c1.793-0.214,3.646-1.075,4.946-2.127
	l0.718-16.867c-1.445-1.04-7.861-4.399-9.728-4.782c-2.259,3.575-4.171,5.546-4.945,11.488
	C107.145,71.424,107.215,76.814,107.061,82.253L107.061,82.253z"/>
<path fill="#FFFFFF" d="M55.754,47.599L56.4,87.668l4.983,1.256L61.18,46.343C59.064,46.152,57.272,46.667,55.754,47.599
	L55.754,47.599z"/>
<path fill="#FFFFFF" d="M21.822,75.583c2.055,0.646,7.814,4.291,13.848,5.977l-0.311-4.446c-3.31-1.746-5.58-1.423-9.069-3.957
	l-0.071-2.82l5.723-0.156l0.12-3.586l-5.867-0.013c-0.083-3.455,0.789-3.394,3.118-4.817c1.506-0.92,3.489-2.116,5.46-2.605
	l-0.132-4.782c-3.213,1.063-8.22,4.411-11.076,6.251c-3.022,1.961-2.282,2.129-2.103,6.396
	C21.583,69.845,21.703,72.689,21.822,75.583L21.822,75.583z"/>
<path fill="#FEFEFE" d="M12.921,70.359c1.434,0,2.604-1.172,2.604-2.605c0-1.436-1.17-2.607-2.604-2.607s-2.604,1.171-2.604,2.607
	C10.316,69.188,11.487,70.359,12.921,70.359L12.921,70.359z"/>
<path fill="#FEFEFE" d="M133.059,70.359c1.436,0,2.604-1.172,2.604-2.605c0-1.436-1.171-2.607-2.604-2.607
	c-1.433,0-2.604,1.171-2.604,2.607C130.454,69.188,131.625,70.359,133.059,70.359L133.059,70.359z"/>
<path d="M111.58,69.412l5.187-1.83c0.418-6.623,1.386-6.92-2.892-8.403C112.656,62.991,112.035,64.749,111.58,69.412L111.58,69.412z
	"/>
</svg>
